<svg width="237" height="151" fill="none" xmlns="http://www.w3.org/2000/svg"><circle cx="118.5" cy="75.499" r="75.5" fill="url(#paint0_radial_70_260)"/><path d="M84.822 99.76V105h-.84v-4.38l-2.7 4.38h-1.14v-5.24h.84v4.33l2.68-4.33h1.16zm6.833.37c.48 0 .903.106 1.27.32.366.206.65.5.85.88.2.373.3.806.3 1.3 0 .486-.104.923-.31 1.31-.2.38-.5.68-.9.9-.394.213-.874.32-1.44.32-.874 0-1.507-.264-1.9-.79-.387-.527-.58-1.29-.58-2.29v-.09c0-.947.12-1.72.36-2.32.24-.607.61-1.064 1.11-1.37.253-.16.51-.274.77-.34.26-.067.616-.134 1.07-.2.206-.027.426-.06.66-.1.233-.047.45-.1.65-.16v.75c-.28.073-.7.156-1.26.25a7.74 7.74 0 00-.84.16c-.2.046-.394.13-.58.25-.327.206-.58.49-.76.85a3.05 3.05 0 00-.31 1.22c.226-.3.5-.517.82-.65.32-.134.66-.2 1.02-.2zm1.53 2.4c0-.527-.15-.937-.45-1.23-.294-.294-.69-.44-1.19-.44-.514 0-.927.153-1.24.46-.314.3-.47.703-.47 1.21v.2c0 .533.15.95.45 1.25.3.3.71.45 1.23.45s.926-.15 1.22-.45c.3-.3.45-.717.45-1.25v-.2zm4.133-2.93c.713 0 1.26.166 1.64.5.387.326.58.766.58 1.32V105h-.83v-.65c-.14.246-.356.443-.65.59-.287.14-.653.21-1.1.21-.62 0-1.117-.134-1.49-.4-.367-.267-.55-.664-.55-1.19 0-.52.194-.917.58-1.19.387-.28.944-.42 1.67-.42h1.51v-.51c0-.374-.123-.654-.37-.84-.24-.187-.573-.28-1-.28-.407 0-.713.08-.92.24-.207.16-.34.366-.4.62h-.92c.073-.507.31-.897.71-1.17.4-.274.913-.41 1.54-.41zm-.2 4.84c.46 0 .834-.11 1.12-.33.293-.22.44-.524.44-.91v-.59h-1.49c-.447 0-.79.08-1.03.24-.233.153-.35.36-.35.62v.11c0 .286.113.503.34.65.234.14.557.21.97.21zm6.068-2.1l-1.13 1.18V105h-.86v-5.24h.86v2.76l2.56-2.76h1.02l-1.88 1.98 2.03 3.26h-.95l-1.65-2.66zm10.684-2.58V105h-.86v-2.33h-2.76V105h-.86v-5.24h.86v2.17h2.76v-2.17h.86zm3.8-.16c.713 0 1.26.166 1.64.5.386.326.58.766.58 1.32V105h-.83v-.65a1.49 1.49 0 01-.65.59c-.287.14-.654.21-1.1.21-.62 0-1.117-.134-1.49-.4-.367-.267-.55-.664-.55-1.19 0-.52.193-.917.58-1.19.386-.28.943-.42 1.67-.42h1.51v-.51c0-.374-.124-.654-.37-.84-.24-.187-.574-.28-1-.28-.407 0-.714.08-.92.24-.207.16-.34.366-.4.62h-.92c.073-.507.31-.897.71-1.17.4-.274.913-.41 1.54-.41zm-.2 4.84c.46 0 .833-.11 1.12-.33.293-.22.44-.524.44-.91v-.59h-1.49c-.447 0-.79.08-1.03.24-.234.153-.35.36-.35.62v.11c0 .286.113.503.34.65.233.14.556.21.97.21zm8.458.56h-.86v-4.5h-2.66v4.5h-.86v-5.24h4.38V105zm3.972.15c-.526 0-.983-.117-1.37-.35a2.394 2.394 0 01-.89-.98c-.206-.42-.31-.9-.31-1.44 0-.54.104-1.02.31-1.44a2.31 2.31 0 01.89-.98c.387-.24.844-.36 1.37-.36.52 0 .974.12 1.36.36.387.233.684.56.89.98.207.42.31.9.31 1.44 0 .54-.103 1.02-.31 1.44a2.38 2.38 0 01-.89.98c-.386.233-.84.35-1.36.35zm0-.74c.52 0 .927-.17 1.22-.51.3-.34.45-.81.45-1.41v-.23c0-.6-.15-1.07-.45-1.41-.293-.34-.7-.51-1.22-.51s-.93.17-1.23.51c-.3.34-.45.81-.45 1.41v.23c0 .6.15 1.07.45 1.41.3.34.71.51 1.23.51zm8.395.59h-.86v-4.5h-2.31v1.88c0 .886-.124 1.56-.37 2.02-.247.453-.637.68-1.17.68-.16 0-.31-.01-.45-.03v-.69c.066.006.16.01.28.01.306 0 .526-.154.66-.46.14-.314.21-.757.21-1.33v-2.82h4.01V105zm6.239-5.24V105h-.86v-2.33h-2.76V105h-.86v-5.24h.86v2.17h2.76v-2.17h.86zm6.48 2.81h-4.19c.02.573.176 1.023.47 1.35.3.326.703.49 1.21.49.786 0 1.3-.36 1.54-1.08h.89c-.16.586-.447 1.036-.86 1.35-.407.313-.93.47-1.57.47-.527 0-.984-.117-1.37-.35a2.38 2.38 0 01-.89-.98c-.207-.42-.31-.9-.31-1.44 0-.54.103-1.02.31-1.44.206-.42.503-.747.89-.98.386-.24.843-.36 1.37-.36.653 0 1.19.183 1.61.55.426.36.71.836.85 1.43.033.14.05.326.05.56v.43zm-2.51-2.23c-.467 0-.847.14-1.14.42-.287.273-.46.656-.52 1.15h3.31c-.047-.5-.217-.887-.51-1.16-.294-.274-.674-.41-1.14-.41zm8.354-.58V105h-.86v-2.33h-2.76V105h-.86v-5.24h.86v2.17h2.76v-2.17h.86zm-53.657 14V119h-.86v-2.33h-2.76V119h-.86v-5.24h.86v2.17h2.76v-2.17h.86zm3.8-.16c.713 0 1.26.166 1.64.5.386.326.58.766.58 1.32V119h-.83v-.65a1.49 1.49 0 01-.65.59c-.287.14-.654.21-1.1.21-.62 0-1.117-.134-1.49-.4-.367-.267-.55-.664-.55-1.19 0-.52.193-.917.58-1.19.386-.28.943-.42 1.67-.42h1.51v-.51c0-.374-.124-.654-.37-.84-.24-.187-.574-.28-1-.28-.407 0-.714.08-.92.24-.207.16-.34.366-.4.62h-.92c.073-.507.31-.897.71-1.17.4-.274.913-.41 1.54-.41zm-.2 4.84c.46 0 .833-.11 1.12-.33.293-.22.44-.524.44-.91v-.59h-1.49c-.447 0-.79.08-1.03.24-.234.153-.35.36-.35.62v.11c0 .286.113.503.34.65.233.14.556.21.97.21zm9.225-6.54v7.1h-.88v-5.95l-1.86 1.52v-.92l2.02-1.75h.72zm4.87 7.26c-.906 0-1.596-.334-2.07-1-.473-.667-.71-1.57-.71-2.71s.237-2.044.71-2.71c.474-.667 1.164-1 2.07-1 .907 0 1.597.333 2.07 1 .474.666.71 1.57.71 2.71s-.236 2.043-.71 2.71c-.473.666-1.163 1-2.07 1zm0-.73c.614 0 1.077-.244 1.39-.73.314-.487.47-1.137.47-1.95v-.6c0-.814-.156-1.464-.47-1.95-.313-.487-.776-.73-1.39-.73-.613 0-1.076.243-1.39.73-.313.486-.47 1.136-.47 1.95v.6c0 .813.157 1.463.47 1.95.314.486.777.73 1.39.73zm6.602.73c-.907 0-1.597-.334-2.07-1-.473-.667-.71-1.57-.71-2.71s.237-2.044.71-2.71c.473-.667 1.163-1 2.07-1 .907 0 1.597.333 2.07 1 .473.666.71 1.57.71 2.71s-.237 2.043-.71 2.71c-.473.666-1.163 1-2.07 1zm0-.73c.613 0 1.077-.244 1.39-.73.313-.487.47-1.137.47-1.95v-.6c0-.814-.157-1.464-.47-1.95-.313-.487-.777-.73-1.39-.73-.613 0-1.077.243-1.39.73-.313.486-.47 1.136-.47 1.95v.6c0 .813.157 1.463.47 1.95.313.486.777.73 1.39.73zm9.522-6.53h.73l-4.83 7.1h-.73l4.83-7.1zm.05 7.19c-.46 0-.84-.15-1.14-.45-.3-.307-.45-.71-.45-1.21 0-.494.15-.89.45-1.19.3-.3.68-.45 1.14-.45.46 0 .84.15 1.14.45.3.3.45.696.45 1.19 0 .5-.15.903-.45 1.21-.3.3-.68.45-1.14.45zm0-.62c.246 0 .453-.08.62-.24.173-.167.26-.4.26-.7v-.19c0-.3-.087-.53-.26-.69a.862.862 0 00-.62-.24.894.894 0 00-.63.24c-.167.16-.25.39-.25.69v.19c0 .3.086.533.26.7.173.16.38.24.62.24zm-4.18-3.37c-.46 0-.84-.15-1.14-.45-.3-.307-.45-.71-.45-1.21 0-.494.15-.89.45-1.19.3-.3.68-.45 1.14-.45.46 0 .84.15 1.14.45.3.3.45.696.45 1.19 0 .5-.15.903-.45 1.21-.3.3-.68.45-1.14.45zm0-.62c.246 0 .453-.08.62-.24.173-.167.26-.4.26-.7v-.19c0-.3-.087-.53-.26-.69a.862.862 0 00-.62-.24.894.894 0 00-.63.24c-.167.16-.25.39-.25.69v.19c0 .3.086.533.26.7.173.16.38.24.62.24zm-25.364-65.692c1.392.48 2.472 1.224 3.24 2.232.768.983 1.152 2.22 1.152 3.707 0 1.489-.384 2.833-1.152 4.033-.768 1.175-1.908 2.111-3.42 2.808-1.512.672-3.348 1.008-5.508 1.008-2.424 0-4.428-.373-6.012-1.117-1.584-.768-2.736-1.752-3.456-2.952a7.961 7.961 0 01-1.08-3.923h5.652c.216 1.247.744 2.231 1.584 2.951.84.72 1.992 1.08 3.456 1.08 1.392 0 2.484-.348 3.276-1.044.816-.695 1.224-1.56 1.224-2.591v-.612c0-1.032-.396-1.825-1.188-2.377-.768-.551-1.824-.828-3.168-.828h-3.06V47.24h2.988c1.2 0 2.136-.3 2.808-.9.696-.6 1.044-1.453 1.044-2.557v-.611c0-.984-.372-1.788-1.116-2.412-.72-.624-1.716-.936-2.988-.936-1.296 0-2.34.324-3.132.971-.768.648-1.296 1.572-1.584 2.773h-5.58c.12-1.32.54-2.556 1.26-3.709.72-1.175 1.824-2.136 3.312-2.88 1.488-.743 3.372-1.115 5.652-1.115 2.064 0 3.816.324 5.256.972 1.44.623 2.52 1.488 3.24 2.592.744 1.104 1.116 2.352 1.116 3.744 0 1.367-.348 2.52-1.044 3.456-.672.911-1.596 1.632-2.772 2.16zM117.864 62h-2.304v-5.22h5.868V62l-2.664 5.364h-3.204l2.304-5.365zm18.444-16.74c2.112 0 3.888.372 5.328 1.116 1.44.744 2.52 1.764 3.24 3.06.72 1.272 1.08 2.748 1.08 4.428 0 1.632-.384 3.108-1.152 4.428-.768 1.32-1.932 2.364-3.492 3.131-1.536.768-3.408 1.152-5.616 1.152-2.352 0-4.32-.348-5.904-1.044-1.56-.695-2.724-1.608-3.492-2.736-.768-1.128-1.164-2.352-1.188-3.672h5.724c.192 1.105.696 1.969 1.512 2.593.84.6 1.98.9 3.42.9 1.416 0 2.556-.397 3.42-1.188.864-.792 1.296-1.848 1.296-3.168v-.72c0-1.344-.432-2.389-1.296-3.133-.864-.767-2.088-1.151-3.672-1.151-1.152 0-2.124.191-2.916.575-.792.384-1.392.888-1.8 1.512h-5.256l1.548-14.904h17.388v4.14h-12.888l-.684 6.084c1.512-.935 3.312-1.403 5.4-1.403zm-35.906 29.292v7.447h-1.918v-5.697l-1.918 5.697H94.76l-2.016-5.795V82h-1.918v-7.448h3.066l1.792 5.263 1.736-5.263h2.982zm9.532 0v7.447h-1.932v-5.263l-3.08 5.263h-2.366v-7.447h1.918v5.194l3.038-5.194h2.422zm9.11 0v7.447h-1.96v-3.066h-3.038V82h-1.96v-7.447h1.96v2.883h3.038v-2.883h1.96zm8.867 0l-3.794 9.855h-1.904l.966-2.52-2.772-7.335h2.03l1.75 4.857 1.806-4.858h1.918zm7.1 1.497h-2.24V82h-1.96v-5.95h-2.24v-1.498h6.44v1.498zm5.554 1.036c.56 0 1.05.108 1.47.323.429.205.761.494.994.867.243.374.364.798.364 1.274 0 .467-.121.887-.364 1.26a2.412 2.412 0 01-.994.883c-.429.205-.919.308-1.47.308h-4.116v-7.448h1.96v2.533h2.156zm5.614-2.533v7.447h-1.96v-7.447h1.96zm-4.802 4.885c0-.28-.107-.49-.322-.63-.205-.149-.485-.224-.84-.224h-1.806v1.918h1.806c.355 0 .635-.07.84-.21.215-.149.322-.364.322-.644v-.21z" fill="#000"/><defs><radialGradient id="paint0_radial_70_260" cx="0" cy="0" r="1" gradientUnits="userSpaceOnUse" gradientTransform="rotate(-147.418 113.147 26.902) scale(179.202 118.238)"><stop offset=".003" stop-color="#fff"/><stop offset=".592" stop-color="#FFE2A4"/><stop offset="1" stop-color="#FFD47C"/></radialGradient></defs></svg>